# AST/ASF file generated using VICON BodyLanguage
# -----------------------------------------------
:version 1.10
:name VICON
:units
  mass 1.0
  length 0.45
  angle deg
:documentation
   .ast/.asf automatically generated from VICON data using
   VICON BodyBuilder and BodyLanguage model FoxedUp or BRILLIANT.MOD
:root
   order TX TY TZ RX RY RZ
   axis XYZ
   position 0 0 0  
   orientation 0 0 0 
:bonedata
  begin
     id 1 
     name lhipjoint
     direction 0.61522 -0.761478 0.204097 
     length 2.55743 
     axis 0 0 0  XYZ
  end
  begin
     id 2 
     name lfemur
     direction 0.34202 -0.939693 0  
     length 7.61162  
     axis 0 0 20  XYZ
    dof rx ry rz
    limits (-160.0 20.0)
           (-70.0 70.0)
           (-60.0 70.0)
  end
  begin
     id 3 
     name ltibia
     direction 0.34202 -0.939693 0   
     length 8.12393   
     axis 0 0 20   XYZ
    dof rx
    limits (-10.0 170.0)
  end
  begin
     id 4 
     name lfoot
     direction 0.0841971 -0.23133 0.969225   
     length 2.3572   
     axis -90 7.62852e-016 20   XYZ
    dof rx rz
    limits (-45.0 90.0)
           (-70.0 20.0)
  end
  begin
     id 5 
     name ltoes
     direction 1.53562e-011 -4.22209e-011 1   
     length 1.17993   
     axis -90 7.62852e-016 20   XYZ
    dof rx
    limits (-90.0 20.0)
  end
  begin
     id 6 
     name rhipjoint
     direction -0.625247 -0.75382 0.202044   
     length 2.58341  
     axis 0 0 0  XYZ 
  end
  begin
     id 7 
     name rfemur
     direction -0.34202 -0.939693 0   
     length 7.42147   
     axis 0 0 -20   XYZ
    dof rx ry rz
    limits (-160.0 20.0)
           (-70.0 70.0)
           (-70.0 60.0)
  end
  begin
     id 8 
     name rtibia
     direction -0.34202 -0.939693 0   
     length 8.20893   
     axis 0 0 -20   XYZ
    dof rx
    limits (-10.0 170.0)
 end
 begin
     id 9 
     name rfoot
     direction -0.124331 -0.341598 0.931586   
     length 2.45604  
     axis -90 -7.62852e-016 -20   XYZ
    dof rx rz
    limits (-45.0 90.0)
           (-20.0 70.0)
  end
  begin
     id 10 
     name rtoes
     direction -1.5353e-011 -4.2199e-011 1   
     length 1.21323   
     axis -90 -7.62852e-016 -20   XYZ
    dof rx
    limits (-90.0 20.0)
  end
  begin
     id 11 
     name lowerback
     direction -0.0218484 0.994884 -0.0986303   
     length 2.00523   
     axis 0 0 0   XYZ
    dof rx ry rz
    limits (-20.0 45.0)
           (-30.0 30.0)
           (-30.0 30.0)
  end
  begin
     id 12 
     name upperback
     direction -0.0097305 0.999717 -0.0217111   
     length 2.01352   
     axis 0 0 0   XYZ
    dof rx ry rz
    limits (-20.0 45.0)
           (-30.0 30.0)
           (-30.0 30.0)
  end
  begin
     id 13 
     name thorax
     direction -0.000928262 0.999699 0.0245198   
     length 2.02938   
     axis 0 0 0   XYZ
    dof rx ry rz
    limits (-20.0 45.0)
           (-30.0 30.0)
           (-30.0 30.0)
  end
  begin
     id 14 
     name lowerneck
     direction -0.0307979 0.998024 0.0547665   
     length 1.77263   
     axis 0 0 0   XYZ
    dof rx ry rz
    limits (-20.0 45.0)
           (-30.0 30.0)
           (-30.0 30.0)
  end
  begin
     id 15 
     name upperneck
     direction 0.0531587 0.996611 -0.0627734   
     length 1.77971   
     axis 0 0 0   XYZ
    dof rx ry rz
    limits (-20.0 45.0)
           (-30.0 30.0)
           (-30.0 30.0)
  end
  begin
     id 16
     name head
     direction 0.0213833 0.999404 -0.0271147  
     length 1.78263  
     axis 0 0 0   XYZ
    dof rx ry rz
    limits (-20.0 45.0)
           (-30.0 30.0)
           (-30.0 30.0)
  end
  begin
     id 17 
     name lclavicle
     direction 0.940017 0.332249 -0.0773233  
     length 3.73315  
     axis 0 0 0   XYZ
    dof ry rz
    limits (-20.0 10.0)
           (0.0 20.0)
  end
  begin
     id 18 
     name lhumerus
     direction 1 -4.48944e-011 7.52288e-028   
     length 5.40188   
     axis 180 -30 -90   XYZ
    dof rx ry rz
    limits (-60.0 90.0)
           (-90.0 90.0)
           (-90.0 90.0)
  end
  begin
     id 19
     name lradius
     direction 1 -4.48988e-011 1.48381e-027   
     length 3.68559   
     axis 180 -30 -90   XYZ
    dof rx
    limits (-10.0 170.0)
  end
  begin
     id 20
     name lwrist
     direction 1 -4.48925e-011 2.56952e-028   
     length 1.84279   
     axis -5.12785e-016 90 90   XYZ
    dof ry
    limits (-180.0 0.0)
 end
  begin
     id 21 
     name lhand
     direction 1 -4.49009e-011 5.13905e-028   
     length 0.61753   
     axis -3.27915e-016 90 90   XYZ
    dof rx rz
    limits (-90.0 90.0)
           (-45.0 45.0)
  end
  begin
     id 22 
     name lfingers
     direction 1 -4.49012e-011 1.02781e-027   
     length 0.497868   
     axis -6.5583e-016 90 90   XYZ
    dof rx
    limits (0.0 90.0)
  end
  begin
     id 23
     name lthumb
     direction 0.707107 -6.34987e-011 0.707107   
     length 0.714842   
     axis -90 45 2.85299e-015   XYZ
    dof rx rz
    limits (-45.0 45.0)
           (-45.0 45.0)
  end
  begin
     id 24 
     name rclavicle
     direction -0.9009 0.425937 -0.0834057   
     length 3.27864  
     axis 0 0 0   XYZ 
    dof ry rz
    limits (-10.0 20.0)
           (-20.0 0.0)
  end
  begin
     id 25 
     name rhumerus
     direction -1 -4.48953e-011 -1.03572e-027  
     length 6.1067   
     axis 180 30 90   XYZ
    dof rx ry rz
    limits (-90.0 60.0)
           (-90.0 90.0)
           (-90.0 90.0)
  end
  begin
     id 26 
     name rradius
     direction -1 -4.48975e-011 1.20742e-027   
     length 3.63052   
     axis 180 30 90   XYZ
    dof rx
    limits (-10.0 170.0)
  end
  begin
     id 27 
     name rwrist
     direction -1 -4.49017e-011 2.56952e-028   
     length 1.81526   
     axis -5.12785e-016 -90 -90   XYZ
    dof ry
    limits (-180.0 0.0)
  end
  begin
     id 28
     name rhand
     direction -1 -4.48832e-011 5.13905e-028   
     length 0.583848   
     axis -3.27915e-016 -90 -90   XYZ
    dof rx rz
    limits (-90.0 90.0)
           (-45.0 45.0)
  end
  begin
     id 29
     name rfingers
     direction -1 -4.48729e-011 1.02781e-027   
     length 0.470713   
     axis -6.5583e-016 -90 -90   XYZ
    dof rx
    limits (0.0 90.0)
  end
  begin
     id 30
     name rthumb
     direction -0.707107 -6.34964e-011 0.707107   
     length 0.675852   
     axis -90 -45 -2.85299e-015   XYZ
    dof rx rz
    limits (-45.0 45.0)
           (-45.0 45.0)
  end
:hierarchy
  begin
    root lhipjoint rhipjoint lowerback
    lhipjoint lfemur
    lfemur ltibia
    ltibia lfoot
    lfoot ltoes
    rhipjoint rfemur
    rfemur rtibia
    rtibia rfoot
    rfoot rtoes
    lowerback upperback
    upperback thorax
    thorax lowerneck lclavicle rclavicle
    lowerneck upperneck
    upperneck head
    lclavicle lhumerus
    lhumerus lradius
    lradius lwrist
    lwrist lhand lthumb
    lhand lfingers
    rclavicle rhumerus
    rhumerus rradius
    rradius rwrist
    rwrist rhand rthumb
    rhand rfingers
  end

#!OML:ASF F:\VICON\USERDATA\INSTALL\rory3\rory3.ASF
:FULLY-SPECIFIED
:DEGREES
64
root 0.322442 14.6341 -2.33722 2.68865 -3.74399 4.99974
lowerback 28.2769 0.806867 -4.79446
upperback 6.11343 -0.544514 -1.78634
thorax -8.73383 -0.174751 0.95454
lowerneck -12.3202 -1.27785 -7.74307
upperneck -7.24968 -0.573953 8.28008
head -0.128569 -0.0445016 4.11579
rclavicle 1.2921e-014 2.45499e-014
rhumerus -22.1557 -1.47984 -80.9044
rradius 41.324
rwrist 11.4432
rhand -32.9 -0.103765
rfingers 7.12502
rthumb -6.11762 -29.9954
lclavicle 1.2921e-014 2.45499e-014
lhumerus -24.5176 4.14658 79.1935
lradius 33.4747
lwrist 3.45292
lhand -29.959 23.3448
lfingers 7.12502
lthumb -3.27787 53.2993
rfemur -50.6997 -5.26393 12.3605
rtibia 95.1995
rfoot -37.6225 -3.7848
rtoes -15.262
lfemur -47.4549 12.4478 -25.4125
ltibia 90.5693
lfoot -34.6793 -6.9983
ltoes -2.41242
65
root 0.322738 14.5957 -2.33843 2.7988 -3.72828 4.66491
lowerback 28.3727 0.754846 -4.58068
upperback 6.04687 -0.544633 -1.65451
thorax -8.85839 -0.17511 0.9793
lowerneck -12.3034 -1.24634 -7.88725
upperneck -7.22821 -0.513928 8.39041
head -0.12798 -0.010387 4.18733
rclavicle 5.36719e-015 1.23246e-014
rhumerus -22.1633 -1.40905 -80.8898
rradius 41.122
rwrist 11.6448
rhand -32.7041 -0.577096
rfingers 7.12502
rthumb -5.92858 -30.4742
lclavicle 5.36719e-015 1.23246e-014
lhumerus -24.5202 4.48174 79.2234
lradius 33.1975
lwrist 3.42594
lhand -30.1852 24.1508
lfingers 7.12502
lthumb -3.49633 54.1019
rfemur -50.9969 -5.28444 12.7788
rtibia 95.6167
rfoot -37.5134 -3.70768
rtoes -15.1313
lfemur -47.8464 12.4149 -25.0841
ltibia 91.0134
lfoot -34.8266 -6.84461
ltoes -2.44195
66
root 0.325032 14.5671 -2.33651 2.78495 -3.66613 4.57995
lowerback 28.4485 0.708936 -4.51874
upperback 6.07513 -0.585541 -1.6252
thorax -8.86248 -0.195569 0.991005
lowerneck -12.2873 -1.21344 -7.86951
upperneck -7.29803 -0.47016 8.37323
head -0.158159 0.0107005 4.17929
rclavicle 5.46658e-016 1.09332e-015
rhumerus -22.0489 -1.46608 -80.9018
rradius 40.8385
rwrist 11.8084
rhand -32.4122 -0.69692
rfingers 7.12502
rthumb -5.6467 -30.6017
lclavicle 5.46658e-016 1.09332e-015
lhumerus -24.359 4.77883 79.1952
lradius 32.8071
lwrist 3.29234
lhand -30.286 24.5765
lfingers 7.12502
lthumb -3.59368 54.5259
rfemur -51.1065 -5.39701 12.8612
rtibia 95.927
rfoot -37.4923 -3.48289
rtoes -14.7022
lfemur -47.9975 12.2405 -25.0022
ltibia 91.3569
lfoot -34.6809 -6.56488
ltoes -3.55529
67
root 0.329277 14.549 -2.32243 2.62765 -3.71828 4.64624
lowerback 28.4799 0.736945 -4.56809
upperback 6.19466 -0.566297 -1.67045
thorax -8.74305 -0.189814 0.962349
lowerneck -12.341 -1.23342 -7.79826
upperneck -7.36044 -0.499547 8.35707
head -0.167454 -0.00488351 4.15808
rclavicle -1.88845e-015 -1.50082e-014
rhumerus -21.9508 -1.49613 -80.9442
rradius 40.6036
rwrist 11.797
rhand -32.4912 -0.495434
rfingers 7.12502
rthumb -5.72298 -30.3981
lclavicle -1.88845e-015 -1.50082e-014
lhumerus -24.1452 5.00186 79.1611
lradius 32.4006
lwrist 3.09508
lhand -30.4601 24.2684
lfingers 7.12502
lthumb -3.76178 54.215
rfemur -50.9834 -5.42982 12.7334
rtibia 96.1224
rfoot -37.612 -3.29256
rtoes -14.2686
lfemur -47.7972 12.1092 -25.0593
ltibia 91.5689
lfoot -34.8241 -6.426
ltoes -3.72496
68
root 0.333027 14.5301 -2.30878 2.5096 -3.85458 4.74301
lowerback 28.5256 0.810266 -4.67084
upperback 6.27181 -0.509572 -1.73394
thorax -8.67994 -0.164048 0.93074
lowerneck -12.3883 -1.26849 -7.77023
upperneck -7.34982 -0.546636 8.3936
head -0.15135 -0.0280194 4.16391
rclavicle 2.88238e-015 1.48095e-014
rhumerus -21.8694 -1.57324 -81.003
rradius 40.3496
rwrist 11.9967
rhand -32.399 -0.739648
rfingers 7.12502
rthumb -5.63396 -30.6448
lclavicle 2.88238e-015 1.48095e-014
lhumerus -24.0049 5.09773 79.1422
lradius 32.1377
lwrist 2.9671
lhand -30.3354 23.8626
lfingers 7.12502
lthumb -3.64136 53.8113
rfemur -50.9671 -5.41218 12.5965
rtibia 96.3042
rfoot -37.6722 -3.34759
rtoes -14.6885
lfemur -47.6528 12.0393 -25.1653
ltibia 91.7408
lfoot -35.1212 -6.22014
ltoes -3.78022
69
root 0.33492 14.5148 -2.30257 2.58603 -3.97821 4.69691
lowerback 28.5135 0.850994 -4.69626
upperback 6.25699 -0.465819 -1.73667
thorax -8.69251 -0.142894 0.926998
lowerneck -12.4031 -1.29979 -7.85151
upperneck -7.33474 -0.575447 8.53502
head -0.139422 -0.039187 4.23055
rclavicle -2.57426e-014 -3.73715e-014
rhumerus -21.835 -1.55708 -81.0406
rradius 40.1133
rwrist 12.4561
rhand -32 -1.71749
rfingers 7.12502
rthumb -5.24872 -31.6325
lclavicle -2.57426e-014 -3.73715e-014
lhumerus -23.9091 5.34279 79.1232
lradius 31.8979
lwrist 2.84803
lhand -30.1043 23.8531
lfingers 7.12502
lthumb -3.41816 53.8055
rfemur -51.1813 -5.34591 12.6621
rtibia 96.4501
rfoot -37.72 -3.42409
rtoes -14.8863
lfemur -47.7946 11.97 -25.1499
ltibia 91.8877
lfoot -35.3069 -5.98592
ltoes -3.88078
70
root 0.336283 14.5055 -2.29714 2.7064 -4.0694 4.62032
lowerback 28.4292 0.873956 -4.71196
upperback 6.25166 -0.434639 -1.72001
thorax -8.65804 -0.128711 0.943937
lowerneck -12.5035 -1.32935 -7.92405
upperneck -7.26157 -0.600598 8.66051
head -0.0938598 -0.0470319 4.29035
rclavicle 8.94531e-016 -7.95139e-015
rhumerus -21.7551 -1.62456 -81.0586
rradius 39.8077
rwrist 13.0091
rhand -31.4267 -2.64654
rfingers 7.12502
rthumb -4.69513 -32.5745
lclavicle 8.94531e-016 -7.95139e-015
lhumerus -23.8308 5.62362 79.128
lradius 31.6881
lwrist 2.77434
lhand -30.1779 23.676
lfingers 7.12502
lthumb -3.48928 53.6272
rfemur -51.3924 -5.30133 12.7815
rtibia 96.5606
rfoot -37.7109 -3.42971
rtoes -14.7174
lfemur -47.9571 11.8922 -25.1068
ltibia 91.9934
lfoot -35.5063 -5.65509
ltoes -4.28471
71
root 0.337844 14.4965 -2.28934 2.68177 -4.08097 4.69035
lowerback 28.4505 0.886772 -4.78969
upperback 6.30639 -0.442819 -1.7496
thorax -8.60534 -0.132973 0.958511
lowerneck -12.5425 -1.38302 -7.89706
upperneck -7.34264 -0.670257 8.63644
head -0.108115 -0.0822733 4.27321
rclavicle -2.52457e-014 -3.57812e-014
rhumerus -21.6333 -1.62543 -81.1083
rradius 39.3923
rwrist 13.0532
rhand -31.3993 -2.4879
rfingers 7.12502
rthumb -4.66873 -32.4165
lclavicle -2.52457e-014 -3.57812e-014
lhumerus -23.6997 5.78794 79.1436
lradius 31.4437
lwrist 2.68654
lhand -30.3841 23.3481
lfingers 7.12502
lthumb -3.6884 53.2959
rfemur -51.4039 -5.39135 12.7248
rtibia 96.6716
rfoot -37.7005 -3.51293
rtoes -14.9967
lfemur -47.9062 11.7025 -25.1969
ltibia 92.0562
lfoot -35.7762 -5.16414
ltoes -5.20218
72
root 0.341905 14.4908 -2.27909 2.64667 -4.05663 4.82597
lowerback 28.4654 0.879987 -4.86717
upperback 6.35304 -0.478463 -1.80718
thorax -8.55755 -0.150028 0.951074
lowerneck -12.4441 -1.41122 -7.82718
upperneck -7.51867 -0.716771 8.55319
head -0.180656 -0.110294 4.2264
rclavicle -1.78906e-015 -2.38542e-014
rhumerus -21.6524 -1.49704 -81.2035
rradius 39.0747
rwrist 12.5705
rhand -32.0471 -1.34577
rfingers 7.12502
rthumb -5.29425 -31.2596
lclavicle -1.78906e-015 -2.38542e-014
lhumerus -23.5271 5.89626 79.1663
lradius 31.1138
lwrist 2.59601
lhand -30.5657 23.0644
lfingers 7.12502
lthumb -3.86376 53.0091
rfemur -51.371 -5.58312 12.5957
rtibia 96.7552
rfoot -37.7335 -3.79796
rtoes -15.7303
lfemur -47.7944 11.4419 -25.3746
ltibia 92.0881
lfoot -36.0299 -4.79382
ltoes -5.68814
73
root 0.343947 14.4864 -2.27343 2.73563 -4.08205 4.75496
lowerback 28.416 0.882556 -4.81642
upperback 6.35161 -0.456865 -1.79989
thorax -8.53653 -0.1413 0.922678
lowerneck -12.5016 -1.38625 -7.83474
upperneck -7.48224 -0.679399 8.58131
head -0.161708 -0.0897886 4.23999
rclavicle 4.67144e-015 1.11319e-014
rhumerus -21.6724 -1.56275 -81.2141
rradius 38.8671
rwrist 12.6935
rhand -31.876 -1.14812
rfingers 7.12502
rthumb -5.12896 -31.066
lclavicle 4.67144e-015 1.11319e-014
lhumerus -23.3899 6.01078 79.188
lradius 30.8515
lwrist 2.4659
lhand -30.4493 23.2648
lfingers 7.12502
lthumb -3.75135 53.2115
rfemur -51.4633 -5.62753 12.7186
rtibia 96.8037
rfoot -37.8474 -3.94108
rtoes -15.8514
lfemur -47.867 11.2863 -25.3215
ltibia 92.1452
lfoot -36.1229 -4.69984
ltoes -5.73125
74
root 0.343759 14.4838 -2.2729 2.80297 -4.16276 4.5785
lowerback 28.3852 0.889081 -4.71367
upperback 6.36128 -0.414853 -1.77527
thorax -8.51355 -0.12424 0.876832
lowerneck -12.587 -1.3424 -7.85785
upperneck -7.4233 -0.612664 8.67021
head -0.132472 -0.0530467 4.28036
rclavicle -1.48095e-014 -2.8625e-014
rhumerus -21.5881 -1.81023 -81.227
rradius 38.6439
rwrist 13.3086
rhand -30.867 -2.13926
rfingers 7.12502
rthumb -4.15467 -32.0785
lclavicle -1.48095e-014 -2.8625e-014
lhumerus -23.2957 6.17028 79.1869
lradius 30.6608
lwrist 2.30154
lhand -30.0872 23.7585
lfingers 7.12502
lthumb -3.40168 53.7111
rfemur -51.5366 -5.54323 12.9574
rtibia 96.8391
rfoot -37.9108 -3.87994
rtoes -15.6095
lfemur -47.9871 11.2359 -25.1308
ltibia 92.2164
lfoot -36.1348 -4.48544
ltoes -5.93751
75
root 0.343405 14.4854 -2.27275 2.81242 -4.23889 4.51132
lowerback 28.4296 0.920369 -4.70131
upperback 6.37103 -0.373184 -1.76341
thorax -8.52637 -0.104909 0.868543
lowerneck -12.5722 -1.38335 -7.89667
upperneck -7.46105 -0.660985 8.72045
head -0.142418 -0.0764071 4.30439
rclavicle 9.0447e-015 1.82882e-014
rhumerus -21.4956 -1.91452 -81.2554
rradius 38.3336
rwrist 13.3775
rhand -30.3862 -2.89039
rfingers 7.12502
rthumb -3.69043 -32.8382
lclavicle 9.0447e-015 1.82882e-014
lhumerus -23.2593 6.26986 79.2388
lradius 30.5673
lwrist 2.22208
lhand -29.9997 23.9848
lfingers 7.12502
lthumb -3.31713 53.9388
rfemur -51.5598 -5.48664 13.0684
rtibia 96.8711
rfoot -37.8438 -3.87791
rtoes -15.2233
lfemur -48.011 11.136 -25.054
ltibia 92.2414
lfoot -36.1368 -4.31189
ltoes -5.88287
